<svg xmlns="http://www.w3.org/2000/svg" width="200" height="200" class="icon" p-id="8433" t="1643421640485" version="1.1" viewBox="0 0 1024 1024"><path fill="#F95F5D" d="M97.9 376h828.4v269.2H97.9z" p-id="8434"/><path fill="#55C7F7" d="M926.3 376V161.5c0-26.6-23.8-50.3-52.1-50.3H149.9c-28.3 0-52.1 23.7-52.1 50.3V376h828.5z m0 0" p-id="8435"/><path fill="#7ECF3B" d="M97.9 645.2v214.5c0 26.6 23.6 50.3 51.7 50.3h725c28.1 0 51.7-23.7 51.7-50.3V645.2H97.9z m0 0" p-id="8436"/><path fill="#FDAF42" d="M421.8 111.2h184.9V910H421.8z" p-id="8437"/><path fill="#FFF" d="M606.7 457.4v112.4H413V457.4h193.7m31.1-45.9H381.9c-4.4 0-11.8 4.4-11.8 11.8v179c0 4.4 4.4 11.8 11.8 11.8h255.9c4.4 0 11.8-4.4 11.8-11.8v-179c-2.9-8.8-7.4-11.8-11.8-11.8z m0 0" p-id="8438"/></svg>