<svg xmlns="http://www.w3.org/2000/svg" xmlns:xlink="http://www.w3.org/1999/xlink" width="200" height="200" class="icon" p-id="5124" t="1643418733661" version="1.1" viewBox="0 0 1024 1024"><defs><style type="text/css"/></defs><path fill="#1071E2" d="M538.311111 684.942222H450.844444v-170.666666l-87.466666 109.368888L275.911111 514.275556v170.666666H188.16V387.413333H275.626667l87.466666 109.368889 87.466667-109.368889h87.466667v297.528889zM730.737778 689.351111l-131.271111-153.173333h87.466666v-148.764445h87.466667v148.764445H861.866667z" p-id="5125"/><path fill="#A8CFFF" d="M910.222222 170.666667c31.431111 0 56.888889 23.608889 56.888889 52.679111v605.752889C967.111111 858.197333 941.653333 881.777778 910.222222 881.777778H113.777778c-31.431111 0-56.888889-23.608889-56.888889-52.679111V223.345778C56.888889 194.247111 82.346667 170.666667 113.777778 170.666667h796.444444z m0 56.888889H113.777778v597.333333h796.444444V227.555556z" p-id="5126"/></svg>