<svg xmlns="http://www.w3.org/2000/svg" xmlns:xlink="http://www.w3.org/1999/xlink" width="200" height="200" class="icon" p-id="6920" t="1643418808492" version="1.1" viewBox="0 0 1024 1024"><defs><style type="text/css"/></defs><path fill="#4A8DFF" d="M179 64h468.5l223 225.5V935c0 13.807-11.193 25-25 25H179c-13.807 0-25-11.193-25-25V89c0-13.807 11.193-25 25-25z" p-id="6921"/><path fill="#E5F0FF" d="M647.5 64v200.5c0 13.807 11.193 25 25 25h198L647.5 64z" p-id="6922"/><path fill="#FFF" d="M693.153 784.6C714.698 808.196 754 792.953 754 761V389h-70v281.758L544.847 518.35c-13.879-15.201-37.815-15.201-51.694 0L354 670.758V389h-70v372c0 31.954 39.302 47.197 60.847 23.6L519 593.857 693.153 784.6z" p-id="6923"/></svg>