<svg xmlns="http://www.w3.org/2000/svg" width="200" height="200" class="icon" p-id="21352" t="1643421746253" version="1.1" viewBox="0 0 1024 1024"><path fill="#FFF" d="M106.666667 320h810.666666v-85.333333a10.666667 10.666667 0 0 0-10.666666-10.666667H117.333333a10.666667 10.666667 0 0 0-10.666666 10.666667v85.333333z m10.666666 480h789.333334a10.666667 10.666667 0 0 0 10.666666-10.666667V341.333333H106.666667v448a10.666667 10.666667 0 0 0 10.666666 10.666667z" p-id="21353"/><path fill="#C8C6C4" d="M154.666667 272m-16 0a16 16 0 1 0 32 0 16 16 0 1 0-32 0Z" p-id="21354"/><path fill="#C8C6C4" d="M208 272m-16 0a16 16 0 1 0 32 0 16 16 0 1 0-32 0Z" p-id="21355"/><path fill="#C8C6C4" d="M261.333333 272m-16 0a16 16 0 1 0 32 0 16 16 0 1 0-32 0Z" p-id="21356"/><path fill="#EDEBE9" d="M320 800H117.333333a10.666667 10.666667 0 0 1-10.666666-10.666667V341.333333h213.333333v458.666667z" p-id="21357"/><path fill="#C8C6C4" d="M256 501.333333h-85.333333a10.666667 10.666667 0 1 1 0-21.333333h85.333333a10.666667 10.666667 0 1 1 0 21.333333z m0-64h-85.333333a10.666667 10.666667 0 1 1 0-21.333333h85.333333a10.666667 10.666667 0 1 1 0 21.333333z m0 128h-85.333333a10.666667 10.666667 0 1 1 0-21.333333h85.333333a10.666667 10.666667 0 1 1 0 21.333333z m320-64H394.666667a10.666667 10.666667 0 1 1 0-21.333333h181.333333a10.666667 10.666667 0 1 1 0 21.333333z m0-64H394.666667a10.666667 10.666667 0 1 1 0-21.333333h181.333333a10.666667 10.666667 0 1 1 0 21.333333z m0 128H394.666667a10.666667 10.666667 0 1 1 0-21.333333h181.333333a10.666667 10.666667 0 1 1 0 21.333333z m0 64H394.666667a10.666667 10.666667 0 1 1 0-21.333333h181.333333a10.666667 10.666667 0 1 1 0 21.333333z m0 64H394.666667a10.666667 10.666667 0 1 1 0-21.333333h181.333333a10.666667 10.666667 0 1 1 0 21.333333z" p-id="21358"/><path fill="#69AFE5" d="M842.666667 693.333333H661.333333a21.333333 21.333333 0 0 1-21.333333-21.333333V437.333333a21.333333 21.333333 0 0 1 21.333333-21.333333h181.333334a21.333333 21.333333 0 0 1 21.333333 21.333333v234.666667a21.333333 21.333333 0 0 1-21.333333 21.333333z" p-id="21359"/><path fill="#605E5C" d="M906.666667 202.666667H117.333333c-17.642667 0-32 14.357333-32 32v554.666666c0 17.642667 14.357333 32 32 32h789.333334c17.642667 0 32-14.357333 32-32V234.666667c0-17.642667-14.357333-32-32-32z m-789.333334 21.333333h789.333334a10.666667 10.666667 0 0 1 10.666666 10.666667v85.333333H106.666667v-85.333333a10.666667 10.666667 0 0 1 10.666666-10.666667z m789.333334 576H117.333333a10.666667 10.666667 0 0 1-10.666666-10.666667V341.333333h810.666666v448a10.666667 10.666667 0 0 1-10.666666 10.666667z" opacity=".64" p-id="21360"/></svg>