<svg xmlns="http://www.w3.org/2000/svg" width="200" height="200" class="icon" p-id="37873" t="1643422344105" version="1.1" viewBox="0 0 1280 1024"><path fill="#FFF" d="M466.346667 658.346667l63.146666 58.453333 285.866667-263.68a148.053333 148.053333 0 0 1 196.693333 0l267.946667 247.466667V42.666667a42.666667 42.666667 0 0 0-42.666667-42.666667H42.666667a42.666667 42.666667 0 0 0-42.666667 42.666667v848.213333l251.306667-232.533333a161.706667 161.706667 0 0 1 215.04 0z" p-id="37874"/><path fill="#99BF87" d="M42.666667 1024h154.453333l332.373333-307.2-63.146666-58.453333a161.706667 161.706667 0 0 0-213.333334 0L0 890.88V981.333333a42.666667 42.666667 0 0 0 42.666667 42.666667zM815.36 453.12l-285.866667 263.68 332.8 307.2H1237.333333a42.666667 42.666667 0 0 0 42.666667-42.666667v-280.746666l-267.946667-247.466667a148.053333 148.053333 0 0 0-196.693333 0z" p-id="37875"/><path fill="#99BF87" d="M197.12 1024h665.173333l-332.8-307.2L197.12 1024z" p-id="37876"/><path fill="#4D4D4D" d="M1237.333333 42.666667v938.666666H42.666667V42.666667h1194.666666m0-42.666667H42.666667a42.666667 42.666667 0 0 0-42.666667 42.666667v938.666666a42.666667 42.666667 0 0 0 42.666667 42.666667h1194.666666a42.666667 42.666667 0 0 0 42.666667-42.666667V42.666667a42.666667 42.666667 0 0 0-42.666667-42.666667z" p-id="37877"/><path fill="#F4CB5A" d="M277.333333 277.333333m-128 0a128 128 0 1 0 256 0 128 128 0 1 0-256 0Z" p-id="37878"/></svg>