<svg xmlns="http://www.w3.org/2000/svg" xmlns:xlink="http://www.w3.org/1999/xlink" width="200" height="200" class="icon" p-id="1292" t="1649321170847" version="1.1" viewBox="0 0 1024 1024"><defs><style type="text/css"/></defs><path fill="#2D527C" d="M837.826 471.678H155.14c-17.138 0-31.03-13.892-31.03-31.03V207.902c0-17.138 13.892-31.03 31.03-31.03h713.72c17.138 0 31.03 13.892 31.03 31.03s-13.892 31.03-31.03 31.03H186.17v170.686h651.656c17.138 0 31.03 13.892 31.03 31.03s-13.892 31.03-31.03 31.03z" p-id="1293"/><path fill="#CEE8FA" d="M217.198 52.736H806.8v155.182H217.198z" p-id="1294"/><path fill="#2D527C" d="M806.802 238.932H217.198c-17.138 0-31.03-13.892-31.03-31.03V52.736c0-17.138 13.892-31.03 31.03-31.03h589.608c17.138 0 31.03 13.892 31.03 31.03v155.166c-0.004 17.138-13.896 31.03-31.034 31.03z m-558.574-62.06h527.548V83.766H248.228v93.106zM385.76 872.08h-39.204c-17.138 0-31.03-13.892-31.03-31.03s13.892-31.03 31.03-31.03h39.204c17.138 0 31.03 13.892 31.03 31.03s-13.894 31.03-31.03 31.03zM531.6 872.08h-39.204c-17.138 0-31.03-13.892-31.03-31.03s13.892-31.03 31.03-31.03H531.6c17.138 0 31.03 13.892 31.03 31.03s-13.892 31.03-31.03 31.03zM677.444 872.08H638.24c-17.138 0-31.03-13.892-31.03-31.03s13.892-31.03 31.03-31.03h39.204c17.138 0 31.03 13.892 31.03 31.03s-13.892 31.03-31.03 31.03z" p-id="1295"/><path fill="#2D527C" d="M930.914 1002.294H31.03C13.892 1002.294 0 988.402 0 971.264V518.232c0-17.138 13.892-31.03 31.03-31.03h961.94c17.138 0 31.03 13.892 31.03 31.03V811.44c0 17.138-13.892 31.03-31.03 31.03s-31.03-13.892-31.03-31.03V549.262H62.06v390.972h868.852c17.138 0 31.03 13.892 31.03 31.03 0.002 17.138-13.892 31.03-31.028 31.03z" p-id="1296"/><path fill="#CEE8FA" d="M93.084 363.052h837.842v155.182H93.084z" p-id="1297"/><path fill="#2D527C" d="M930.914 549.262H93.086c-17.138 0-31.03-13.892-31.03-31.03v-155.166c0-17.138 13.892-31.03 31.03-31.03h837.83c17.138 0 31.03 13.892 31.03 31.03v155.166c-0.002 17.138-13.896 31.03-31.032 31.03z m-806.798-62.06h775.77v-93.106H124.116v93.106z" p-id="1298"/></svg>