<svg xmlns="http://www.w3.org/2000/svg" xmlns:xlink="http://www.w3.org/1999/xlink" width="200" height="200" class="icon" p-id="5569" t="1643418748712" version="1.1" viewBox="0 0 1024 1024"><defs><style type="text/css"/></defs><path fill="#E53935" d="M548.1984 154.7264l98.2016 64.512L588.8 404.736l-208.0256 193.6384-180.736 39.936-36.864-102.4L153.6 724.8384c3.9424 141.2608 105.4208 142.7968 148.7872 144.0256L300.8 870.4l568.0128-4.8128 4.7616-567.9616C876.6464 217.4976 786.7392 153.6 736.0512 153.6zM300.544 304.128C193.536 410.112 166.7072 507.904 219.648 561.2032c52.8896 53.4016 153.1904 10.4448 260.1472-95.5904 107.008-105.984 139.6224-205.312 86.7328-258.6624-83.968-71.3728-209.3056 34.7648-265.984 97.1264z" p-id="5570"/></svg>