<svg xmlns="http://www.w3.org/2000/svg" width="128" height="128" class="icon" p-id="3784" t="1659779675391" version="1.1" viewBox="0 0 1300 1024"><path d="M426.666667 256h85.333333v85.333333h-85.333333zM512 341.333333h85.333333v85.333334h-85.333333zM426.666667 426.666667h85.333333v85.333333h-85.333333zM426.666667 597.333333v128h170.666666v-213.333333h-85.333333v85.333333z" p-id="3785"/><path d="M853.333333 85.333333H170.666667c-25.6 0-42.666667 17.066667-42.666667 42.666667v768c0 25.6 17.066667 42.666667 42.666667 42.666667h682.666666c25.6 0 42.666667-17.066667 42.666667-42.666667V128c0-25.6-17.066667-42.666667-42.666667-42.666667z m-42.666666 768H213.333333V170.666667h298.666667v85.333333h85.333333V170.666667h213.333334v682.666666z" p-id="3786"/></svg>